<?xml version="1.0"?>
<svg xmlns="http://www.w3.org/2000/svg" xmlns:xlink="http://www.w3.org/1999/xlink" viewBox="0 0 432.000000 316.000000" width="216.000000mm" height="158.000000mm" version="1.1">
<a xlink:href="allpass-0x7f21bc40fb80.svg">
<rect x="1.000000" y="1.000000" width="431.000000" height="315.000000" rx="0" ry="0" style="stroke:none;fill:#cccccc;"/>
<rect x="0.000000" y="0.000000" width="431.000000" height="315.000000" rx="0" ry="0" style="stroke:none;fill:#ffffff;"/>
</a>
<text x="10.000000" y="7.000000" font-family="Arial" font-size="7"></text>
<rect x="33.000000" y="147.000000" width="24.000000" height="24.000000" rx="0" ry="0" style="stroke:none;fill:#cccccc;"/>
<rect x="32.000000" y="146.000000" width="24.000000" height="24.000000" rx="0" ry="0" style="stroke:none;fill:#47945E;"/>
<text x="44.000000" y="160.000000" font-family="Arial" font-size="7" text-anchor="middle" fill="#FFFFFF">x</text>
<circle cx="34.000000" cy="148.000000" r="1"/>
<line x1="29.000000" y1="157.000000" x2="32.000000" y2="158.000000"  transform="rotate(0.000000,32.000000,158.000000)" style="stroke: black; stroke-width:0.25;"/>
<line x1="29.000000" y1="159.000000" x2="32.000000" y2="158.000000"  transform="rotate(0.000000,32.000000,158.000000)" style="stroke: black; stroke-width:0.25;"/>
<rect x="201.000000" y="25.000000" width="24.000000" height="24.000000" rx="0" ry="0" style="stroke:none;fill:#cccccc;"/>
<rect x="200.000000" y="24.000000" width="24.000000" height="24.000000" rx="0" ry="0" style="stroke:none;fill:#47945E;"/>
<text x="212.000000" y="38.000000" font-family="Arial" font-size="7" text-anchor="middle" fill="#FFFFFF">x</text>
<circle cx="202.000000" cy="26.000000" r="1"/>
<rect x="180.100000" y="57.000000" width="25.800000" height="24.000000" rx="0" ry="0" style="stroke:none;fill:#cccccc;"/>
<rect x="179.100000" y="56.000000" width="25.800000" height="24.000000" rx="0" ry="0" style="stroke:none;fill:#f44800;"/>
<text x="192.000000" y="70.000000" font-family="Arial" font-size="7" text-anchor="middle" fill="#FFFFFF">1024</text>
<circle cx="181.100000" cy="58.000000" r="1"/>
<rect x="161.000000" y="89.000000" width="24.000000" height="24.000000" rx="0" ry="0" style="stroke:none;fill:#cccccc;"/>
<rect x="160.000000" y="88.000000" width="24.000000" height="24.000000" rx="0" ry="0" style="stroke:none;fill:#f44800;"/>
<text x="172.000000" y="102.000000" font-family="Arial" font-size="7" text-anchor="middle" fill="#FFFFFF">0</text>
<circle cx="162.000000" cy="90.000000" r="1"/>
<rect x="65.000000" y="121.000000" width="24.000000" height="24.000000" rx="0" ry="0" style="stroke:none;fill:#cccccc;"/>
<rect x="64.000000" y="120.000000" width="24.000000" height="24.000000" rx="0" ry="0" style="stroke:none;fill:#f44800;"/>
<text x="76.000000" y="134.000000" font-family="Arial" font-size="7" text-anchor="middle" fill="#FFFFFF">225</text>
<circle cx="66.000000" cy="122.000000" r="1"/>
<a xlink:href="SR-0x7f21bc0c2e30.svg">
<rect x="65.000000" y="153.000000" width="24.000000" height="24.000000" rx="0" ry="0" style="stroke:none;fill:#cccccc;"/>
<rect x="64.000000" y="152.000000" width="24.000000" height="24.000000" rx="0" ry="0" style="stroke:none;fill:#003366;"/>
</a>
<a xlink:href="SR-0x7f21bc0c2e30.svg">
<text x="76.000000" y="166.000000" font-family="Arial" font-size="7" text-anchor="middle" fill="#FFFFFF">SR</text>
</a>
<circle cx="66.000000" cy="154.000000" r="1"/>
<rect x="105.000000" y="137.000000" width="24.000000" height="24.000000" rx="0" ry="0" style="stroke:none;fill:#cccccc;"/>
<rect x="104.000000" y="136.000000" width="24.000000" height="24.000000" rx="0" ry="0" style="stroke:none;fill:#4B71A1;"/>
<text x="116.000000" y="150.000000" font-family="Arial" font-size="7" text-anchor="middle" fill="#FFFFFF">*</text>
<circle cx="106.000000" cy="138.000000" r="1"/>
<line x1="101.000000" y1="143.000000" x2="104.000000" y2="144.000000"  transform="rotate(0.000000,104.000000,144.000000)" style="stroke: black; stroke-width:0.25;"/>
<line x1="101.000000" y1="145.000000" x2="104.000000" y2="144.000000"  transform="rotate(0.000000,104.000000,144.000000)" style="stroke: black; stroke-width:0.25;"/>
<line x1="101.000000" y1="151.000000" x2="104.000000" y2="152.000000"  transform="rotate(0.000000,104.000000,152.000000)" style="stroke: black; stroke-width:0.25;"/>
<line x1="101.000000" y1="153.000000" x2="104.000000" y2="152.000000"  transform="rotate(0.000000,104.000000,152.000000)" style="stroke: black; stroke-width:0.25;"/>
<rect x="84.100000" y="195.000000" width="25.800000" height="24.000000" rx="0" ry="0" style="stroke:none;fill:#cccccc;"/>
<rect x="83.100000" y="194.000000" width="25.800000" height="24.000000" rx="0" ry="0" style="stroke:none;fill:#f44800;"/>
<text x="96.000000" y="208.000000" font-family="Arial" font-size="7" text-anchor="middle" fill="#FFFFFF">44100</text>
<circle cx="85.100000" cy="196.000000" r="1"/>
<line x1="74.100000" y1="185.000000" x2="74.100000" y2="227.000000"  style="stroke: black; stroke-linecap:round; stroke-width:0.25; stroke-dasharray:3,3;"/>
<line x1="74.100000" y1="227.000000" x2="117.900000" y2="227.000000"  style="stroke: black; stroke-linecap:round; stroke-width:0.25; stroke-dasharray:3,3;"/>
<line x1="117.900000" y1="227.000000" x2="117.900000" y2="185.000000"  style="stroke: black; stroke-linecap:round; stroke-width:0.25; stroke-dasharray:3,3;"/>
<line x1="74.100000" y1="185.000000" x2="79.100000" y2="185.000000"  style="stroke: black; stroke-linecap:round; stroke-width:0.25; stroke-dasharray:3,3;"/>
<line x1="104.900000" y1="185.000000" x2="117.900000" y2="185.000000"  style="stroke: black; stroke-linecap:round; stroke-width:0.25; stroke-dasharray:3,3;"/>
<text x="79.100000" y="187.000000" font-family="Arial" font-size="7">origSR</text>
<rect x="145.000000" y="163.000000" width="24.000000" height="24.000000" rx="0" ry="0" style="stroke:none;fill:#cccccc;"/>
<rect x="144.000000" y="162.000000" width="24.000000" height="24.000000" rx="0" ry="0" style="stroke:none;fill:#4B71A1;"/>
<text x="156.000000" y="176.000000" font-family="Arial" font-size="7" text-anchor="middle" fill="#FFFFFF">/</text>
<circle cx="146.000000" cy="164.000000" r="1"/>
<line x1="141.000000" y1="169.000000" x2="144.000000" y2="170.000000"  transform="rotate(0.000000,144.000000,170.000000)" style="stroke: black; stroke-width:0.25;"/>
<line x1="141.000000" y1="171.000000" x2="144.000000" y2="170.000000"  transform="rotate(0.000000,144.000000,170.000000)" style="stroke: black; stroke-width:0.25;"/>
<line x1="141.000000" y1="177.000000" x2="144.000000" y2="178.000000"  transform="rotate(0.000000,144.000000,178.000000)" style="stroke: black; stroke-width:0.25;"/>
<line x1="141.000000" y1="179.000000" x2="144.000000" y2="178.000000"  transform="rotate(0.000000,144.000000,178.000000)" style="stroke: black; stroke-width:0.25;"/>
<rect x="177.000000" y="163.000000" width="24.000000" height="24.000000" rx="0" ry="0" style="stroke:none;fill:#cccccc;"/>
<rect x="176.000000" y="162.000000" width="24.000000" height="24.000000" rx="0" ry="0" style="stroke:none;fill:#4B71A1;"/>
<text x="188.000000" y="176.000000" font-family="Arial" font-size="7" text-anchor="middle" fill="#FFFFFF">int</text>
<circle cx="178.000000" cy="164.000000" r="1"/>
<line x1="173.000000" y1="173.000000" x2="176.000000" y2="174.000000"  transform="rotate(0.000000,176.000000,174.000000)" style="stroke: black; stroke-width:0.25;"/>
<line x1="173.000000" y1="175.000000" x2="176.000000" y2="174.000000"  transform="rotate(0.000000,176.000000,174.000000)" style="stroke: black; stroke-width:0.25;"/>
<rect x="113.650000" y="237.000000" width="38.700000" height="24.000000" rx="0" ry="0" style="stroke:none;fill:#cccccc;"/>
<rect x="112.650000" y="236.000000" width="38.700000" height="24.000000" rx="0" ry="0" style="stroke:none;fill:#f44800;"/>
<text x="132.000000" y="250.000000" font-family="Arial" font-size="7" text-anchor="middle" fill="#FFFFFF">0.532281</text>
<circle cx="114.650000" cy="238.000000" r="1"/>
<rect x="217.000000" y="179.000000" width="24.000000" height="24.000000" rx="0" ry="0" style="stroke:none;fill:#cccccc;"/>
<rect x="216.000000" y="178.000000" width="24.000000" height="24.000000" rx="0" ry="0" style="stroke:none;fill:#4B71A1;"/>
<text x="228.000000" y="192.000000" font-family="Arial" font-size="7" text-anchor="middle" fill="#FFFFFF">+</text>
<circle cx="218.000000" cy="180.000000" r="1"/>
<line x1="213.000000" y1="185.000000" x2="216.000000" y2="186.000000"  transform="rotate(0.000000,216.000000,186.000000)" style="stroke: black; stroke-width:0.25;"/>
<line x1="213.000000" y1="187.000000" x2="216.000000" y2="186.000000"  transform="rotate(0.000000,216.000000,186.000000)" style="stroke: black; stroke-width:0.25;"/>
<line x1="213.000000" y1="193.000000" x2="216.000000" y2="194.000000"  transform="rotate(0.000000,216.000000,194.000000)" style="stroke: black; stroke-width:0.25;"/>
<line x1="213.000000" y1="195.000000" x2="216.000000" y2="194.000000"  transform="rotate(0.000000,216.000000,194.000000)" style="stroke: black; stroke-width:0.25;"/>
<rect x="141.000000" y="269.000000" width="24.000000" height="24.000000" rx="0" ry="0" style="stroke:none;fill:#cccccc;"/>
<rect x="140.000000" y="268.000000" width="24.000000" height="24.000000" rx="0" ry="0" style="stroke:none;fill:#f44800;"/>
<text x="152.000000" y="282.000000" font-family="Arial" font-size="7" text-anchor="middle" fill="#FFFFFF">1</text>
<circle cx="142.000000" cy="270.000000" r="1"/>
<rect x="257.000000" y="195.000000" width="24.000000" height="24.000000" rx="0" ry="0" style="stroke:none;fill:#cccccc;"/>
<rect x="256.000000" y="194.000000" width="24.000000" height="24.000000" rx="0" ry="0" style="stroke:none;fill:#4B71A1;"/>
<text x="268.000000" y="208.000000" font-family="Arial" font-size="7" text-anchor="middle" fill="#FFFFFF">-</text>
<circle cx="258.000000" cy="196.000000" r="1"/>
<line x1="253.000000" y1="201.000000" x2="256.000000" y2="202.000000"  transform="rotate(0.000000,256.000000,202.000000)" style="stroke: black; stroke-width:0.25;"/>
<line x1="253.000000" y1="203.000000" x2="256.000000" y2="202.000000"  transform="rotate(0.000000,256.000000,202.000000)" style="stroke: black; stroke-width:0.25;"/>
<line x1="253.000000" y1="209.000000" x2="256.000000" y2="210.000000"  transform="rotate(0.000000,256.000000,210.000000)" style="stroke: black; stroke-width:0.25;"/>
<line x1="253.000000" y1="211.000000" x2="256.000000" y2="210.000000"  transform="rotate(0.000000,256.000000,210.000000)" style="stroke: black; stroke-width:0.25;"/>
<rect x="297.000000" y="179.000000" width="24.000000" height="24.000000" rx="0" ry="0" style="stroke:none;fill:#cccccc;"/>
<rect x="296.000000" y="178.000000" width="24.000000" height="24.000000" rx="0" ry="0" style="stroke:none;fill:#4B71A1;"/>
<text x="308.000000" y="192.000000" font-family="Arial" font-size="7" text-anchor="middle" fill="#FFFFFF">max</text>
<circle cx="298.000000" cy="180.000000" r="1"/>
<line x1="293.000000" y1="185.000000" x2="296.000000" y2="186.000000"  transform="rotate(0.000000,296.000000,186.000000)" style="stroke: black; stroke-width:0.25;"/>
<line x1="293.000000" y1="187.000000" x2="296.000000" y2="186.000000"  transform="rotate(0.000000,296.000000,186.000000)" style="stroke: black; stroke-width:0.25;"/>
<line x1="293.000000" y1="193.000000" x2="296.000000" y2="194.000000"  transform="rotate(0.000000,296.000000,194.000000)" style="stroke: black; stroke-width:0.25;"/>
<line x1="293.000000" y1="195.000000" x2="296.000000" y2="194.000000"  transform="rotate(0.000000,296.000000,194.000000)" style="stroke: black; stroke-width:0.25;"/>
<rect x="337.000000" y="163.000000" width="24.000000" height="24.000000" rx="0" ry="0" style="stroke:none;fill:#cccccc;"/>
<rect x="336.000000" y="162.000000" width="24.000000" height="24.000000" rx="0" ry="0" style="stroke:none;fill:#4B71A1;"/>
<text x="348.000000" y="176.000000" font-family="Arial" font-size="7" text-anchor="middle" fill="#FFFFFF">min</text>
<circle cx="338.000000" cy="164.000000" r="1"/>
<line x1="333.000000" y1="169.000000" x2="336.000000" y2="170.000000"  transform="rotate(0.000000,336.000000,170.000000)" style="stroke: black; stroke-width:0.25;"/>
<line x1="333.000000" y1="171.000000" x2="336.000000" y2="170.000000"  transform="rotate(0.000000,336.000000,170.000000)" style="stroke: black; stroke-width:0.25;"/>
<line x1="333.000000" y1="177.000000" x2="336.000000" y2="178.000000"  transform="rotate(0.000000,336.000000,178.000000)" style="stroke: black; stroke-width:0.25;"/>
<line x1="333.000000" y1="179.000000" x2="336.000000" y2="178.000000"  transform="rotate(0.000000,336.000000,178.000000)" style="stroke: black; stroke-width:0.25;"/>
<rect x="377.000000" y="147.000000" width="24.000000" height="24.000000" rx="0" ry="0" style="stroke:none;fill:#cccccc;"/>
<rect x="376.000000" y="146.000000" width="24.000000" height="24.000000" rx="0" ry="0" style="stroke:none;fill:#4B71A1;"/>
<text x="388.000000" y="160.000000" font-family="Arial" font-size="7" text-anchor="middle" fill="#FFFFFF">@</text>
<circle cx="378.000000" cy="148.000000" r="1"/>
<line x1="373.000000" y1="153.000000" x2="376.000000" y2="154.000000"  transform="rotate(0.000000,376.000000,154.000000)" style="stroke: black; stroke-width:0.25;"/>
<line x1="373.000000" y1="155.000000" x2="376.000000" y2="154.000000"  transform="rotate(0.000000,376.000000,154.000000)" style="stroke: black; stroke-width:0.25;"/>
<line x1="373.000000" y1="161.000000" x2="376.000000" y2="162.000000"  transform="rotate(0.000000,376.000000,162.000000)" style="stroke: black; stroke-width:0.25;"/>
<line x1="373.000000" y1="163.000000" x2="376.000000" y2="162.000000"  transform="rotate(0.000000,376.000000,162.000000)" style="stroke: black; stroke-width:0.25;"/>
<line x1="15.000000" y1="15.000000" x2="15.000000" y2="301.000000"  style="stroke: black; stroke-linecap:round; stroke-width:0.25; stroke-dasharray:3,3;"/>
<line x1="15.000000" y1="301.000000" x2="417.000000" y2="301.000000"  style="stroke: black; stroke-linecap:round; stroke-width:0.25; stroke-dasharray:3,3;"/>
<line x1="417.000000" y1="301.000000" x2="417.000000" y2="15.000000"  style="stroke: black; stroke-linecap:round; stroke-width:0.25; stroke-dasharray:3,3;"/>
<line x1="15.000000" y1="15.000000" x2="20.000000" y2="15.000000"  style="stroke: black; stroke-linecap:round; stroke-width:0.25; stroke-dasharray:3,3;"/>
<line x1="119.975000" y1="15.000000" x2="417.000000" y2="15.000000"  style="stroke: black; stroke-linecap:round; stroke-width:0.25; stroke-dasharray:3,3;"/>
<text x="20.000000" y="17.000000" font-family="Arial" font-size="7">delay(1024)((...f : +),1 : -)</text>
<line x1="419.000000" y1="157.000000" x2="422.000000" y2="158.000000"  transform="rotate(0.000000,422.000000,158.000000)" style="stroke: black; stroke-width:0.25;"/>
<line x1="419.000000" y1="159.000000" x2="422.000000" y2="158.000000"  transform="rotate(0.000000,422.000000,158.000000)" style="stroke: black; stroke-width:0.25;"/>
<line x1="10.000000" y1="158.000000" x2="20.000000" y2="158.000000"  style="stroke:black; stroke-linecap:round; stroke-width:0.25;"/>
<line x1="20.000000" y1="158.000000" x2="24.000000" y2="158.000000"  style="stroke:black; stroke-linecap:round; stroke-width:0.25;"/>
<line x1="24.000000" y1="158.000000" x2="28.000000" y2="158.000000"  style="stroke:black; stroke-linecap:round; stroke-width:0.25;"/>
<line x1="28.000000" y1="158.000000" x2="28.000000" y2="158.000000"  style="stroke:black; stroke-linecap:round; stroke-width:0.25;"/>
<line x1="28.000000" y1="158.000000" x2="32.000000" y2="158.000000"  style="stroke:black; stroke-linecap:round; stroke-width:0.25;"/>
<line x1="88.000000" y1="132.000000" x2="92.000000" y2="132.000000"  style="stroke:black; stroke-linecap:round; stroke-width:0.25;"/>
<line x1="88.000000" y1="164.000000" x2="92.000000" y2="164.000000"  style="stroke:black; stroke-linecap:round; stroke-width:0.25;"/>
<line x1="92.000000" y1="132.000000" x2="100.000000" y2="132.000000"  style="stroke:black; stroke-linecap:round; stroke-width:0.25;"/>
<line x1="92.000000" y1="152.000000" x2="100.000000" y2="152.000000"  style="stroke:black; stroke-linecap:round; stroke-width:0.25;"/>
<line x1="92.000000" y1="164.000000" x2="92.000000" y2="152.000000"  style="stroke:black; stroke-linecap:round; stroke-width:0.25;"/>
<line x1="92.000000" y1="164.000000" x2="92.000000" y2="164.000000"  style="stroke:black; stroke-linecap:round; stroke-width:0.25;"/>
<line x1="100.000000" y1="132.000000" x2="100.000000" y2="144.000000"  style="stroke:black; stroke-linecap:round; stroke-width:0.25;"/>
<line x1="100.000000" y1="144.000000" x2="100.000000" y2="144.000000"  style="stroke:black; stroke-linecap:round; stroke-width:0.25;"/>
<line x1="100.000000" y1="144.000000" x2="104.000000" y2="144.000000"  style="stroke:black; stroke-linecap:round; stroke-width:0.25;"/>
<line x1="100.000000" y1="152.000000" x2="104.000000" y2="152.000000"  style="stroke:black; stroke-linecap:round; stroke-width:0.25;"/>
<line x1="108.900000" y1="206.000000" x2="112.900000" y2="206.000000"  style="stroke:black; stroke-linecap:round; stroke-width:0.25;"/>
<line x1="112.900000" y1="206.000000" x2="122.900000" y2="206.000000"  style="stroke:black; stroke-linecap:round; stroke-width:0.25;"/>
<line x1="122.900000" y1="206.000000" x2="132.000000" y2="206.000000"  style="stroke:black; stroke-linecap:round; stroke-width:0.25;"/>
<line x1="128.000000" y1="148.000000" x2="132.000000" y2="148.000000"  style="stroke:black; stroke-linecap:round; stroke-width:0.25;"/>
<line x1="132.000000" y1="148.000000" x2="140.000000" y2="148.000000"  style="stroke:black; stroke-linecap:round; stroke-width:0.25;"/>
<line x1="132.000000" y1="178.000000" x2="140.000000" y2="178.000000"  style="stroke:black; stroke-linecap:round; stroke-width:0.25;"/>
<line x1="132.000000" y1="206.000000" x2="132.000000" y2="178.000000"  style="stroke:black; stroke-linecap:round; stroke-width:0.25;"/>
<line x1="132.000000" y1="206.000000" x2="132.000000" y2="206.000000"  style="stroke:black; stroke-linecap:round; stroke-width:0.25;"/>
<line x1="140.000000" y1="148.000000" x2="140.000000" y2="170.000000"  style="stroke:black; stroke-linecap:round; stroke-width:0.25;"/>
<line x1="140.000000" y1="170.000000" x2="140.000000" y2="170.000000"  style="stroke:black; stroke-linecap:round; stroke-width:0.25;"/>
<line x1="140.000000" y1="170.000000" x2="144.000000" y2="170.000000"  style="stroke:black; stroke-linecap:round; stroke-width:0.25;"/>
<line x1="140.000000" y1="178.000000" x2="144.000000" y2="178.000000"  style="stroke:black; stroke-linecap:round; stroke-width:0.25;"/>
<line x1="151.350000" y1="248.000000" x2="155.350000" y2="248.000000"  style="stroke:black; stroke-linecap:round; stroke-width:0.25;"/>
<line x1="155.350000" y1="248.000000" x2="204.000000" y2="248.000000"  style="stroke:black; stroke-linecap:round; stroke-width:0.25;"/>
<line x1="164.000000" y1="280.000000" x2="168.000000" y2="280.000000"  style="stroke:black; stroke-linecap:round; stroke-width:0.25;"/>
<line x1="168.000000" y1="174.000000" x2="172.000000" y2="174.000000"  style="stroke:black; stroke-linecap:round; stroke-width:0.25;"/>
<line x1="168.000000" y1="280.000000" x2="244.000000" y2="280.000000"  style="stroke:black; stroke-linecap:round; stroke-width:0.25;"/>
<line x1="172.000000" y1="174.000000" x2="172.000000" y2="174.000000"  style="stroke:black; stroke-linecap:round; stroke-width:0.25;"/>
<line x1="172.000000" y1="174.000000" x2="176.000000" y2="174.000000"  style="stroke:black; stroke-linecap:round; stroke-width:0.25;"/>
<line x1="184.000000" y1="100.000000" x2="188.000000" y2="100.000000"  style="stroke:black; stroke-linecap:round; stroke-width:0.25;"/>
<line x1="188.000000" y1="100.000000" x2="284.000000" y2="100.000000"  style="stroke:black; stroke-linecap:round; stroke-width:0.25;"/>
<line x1="200.000000" y1="174.000000" x2="204.000000" y2="174.000000"  style="stroke:black; stroke-linecap:round; stroke-width:0.25;"/>
<line x1="204.000000" y1="174.000000" x2="212.000000" y2="174.000000"  style="stroke:black; stroke-linecap:round; stroke-width:0.25;"/>
<line x1="204.000000" y1="194.000000" x2="212.000000" y2="194.000000"  style="stroke:black; stroke-linecap:round; stroke-width:0.25;"/>
<line x1="204.000000" y1="248.000000" x2="204.000000" y2="194.000000"  style="stroke:black; stroke-linecap:round; stroke-width:0.25;"/>
<line x1="204.000000" y1="248.000000" x2="204.000000" y2="248.000000"  style="stroke:black; stroke-linecap:round; stroke-width:0.25;"/>
<line x1="204.900000" y1="68.000000" x2="208.900000" y2="68.000000"  style="stroke:black; stroke-linecap:round; stroke-width:0.25;"/>
<line x1="208.900000" y1="68.000000" x2="324.000000" y2="68.000000"  style="stroke:black; stroke-linecap:round; stroke-width:0.25;"/>
<line x1="212.000000" y1="174.000000" x2="212.000000" y2="186.000000"  style="stroke:black; stroke-linecap:round; stroke-width:0.25;"/>
<line x1="212.000000" y1="186.000000" x2="212.000000" y2="186.000000"  style="stroke:black; stroke-linecap:round; stroke-width:0.25;"/>
<line x1="212.000000" y1="186.000000" x2="216.000000" y2="186.000000"  style="stroke:black; stroke-linecap:round; stroke-width:0.25;"/>
<line x1="212.000000" y1="194.000000" x2="216.000000" y2="194.000000"  style="stroke:black; stroke-linecap:round; stroke-width:0.25;"/>
<line x1="224.000000" y1="36.000000" x2="228.000000" y2="36.000000"  style="stroke:black; stroke-linecap:round; stroke-width:0.25;"/>
<line x1="228.000000" y1="36.000000" x2="364.000000" y2="36.000000"  style="stroke:black; stroke-linecap:round; stroke-width:0.25;"/>
<line x1="240.000000" y1="190.000000" x2="244.000000" y2="190.000000"  style="stroke:black; stroke-linecap:round; stroke-width:0.25;"/>
<line x1="244.000000" y1="190.000000" x2="252.000000" y2="190.000000"  style="stroke:black; stroke-linecap:round; stroke-width:0.25;"/>
<line x1="244.000000" y1="210.000000" x2="252.000000" y2="210.000000"  style="stroke:black; stroke-linecap:round; stroke-width:0.25;"/>
<line x1="244.000000" y1="280.000000" x2="244.000000" y2="210.000000"  style="stroke:black; stroke-linecap:round; stroke-width:0.25;"/>
<line x1="244.000000" y1="280.000000" x2="244.000000" y2="280.000000"  style="stroke:black; stroke-linecap:round; stroke-width:0.25;"/>
<line x1="252.000000" y1="190.000000" x2="252.000000" y2="202.000000"  style="stroke:black; stroke-linecap:round; stroke-width:0.25;"/>
<line x1="252.000000" y1="202.000000" x2="252.000000" y2="202.000000"  style="stroke:black; stroke-linecap:round; stroke-width:0.25;"/>
<line x1="252.000000" y1="202.000000" x2="256.000000" y2="202.000000"  style="stroke:black; stroke-linecap:round; stroke-width:0.25;"/>
<line x1="252.000000" y1="210.000000" x2="256.000000" y2="210.000000"  style="stroke:black; stroke-linecap:round; stroke-width:0.25;"/>
<line x1="280.000000" y1="206.000000" x2="284.000000" y2="206.000000"  style="stroke:black; stroke-linecap:round; stroke-width:0.25;"/>
<line x1="284.000000" y1="100.000000" x2="292.000000" y2="100.000000"  style="stroke:black; stroke-linecap:round; stroke-width:0.25;"/>
<line x1="284.000000" y1="194.000000" x2="292.000000" y2="194.000000"  style="stroke:black; stroke-linecap:round; stroke-width:0.25;"/>
<line x1="284.000000" y1="206.000000" x2="284.000000" y2="194.000000"  style="stroke:black; stroke-linecap:round; stroke-width:0.25;"/>
<line x1="284.000000" y1="206.000000" x2="284.000000" y2="206.000000"  style="stroke:black; stroke-linecap:round; stroke-width:0.25;"/>
<line x1="292.000000" y1="100.000000" x2="292.000000" y2="186.000000"  style="stroke:black; stroke-linecap:round; stroke-width:0.25;"/>
<line x1="292.000000" y1="186.000000" x2="292.000000" y2="186.000000"  style="stroke:black; stroke-linecap:round; stroke-width:0.25;"/>
<line x1="292.000000" y1="186.000000" x2="296.000000" y2="186.000000"  style="stroke:black; stroke-linecap:round; stroke-width:0.25;"/>
<line x1="292.000000" y1="194.000000" x2="296.000000" y2="194.000000"  style="stroke:black; stroke-linecap:round; stroke-width:0.25;"/>
<line x1="320.000000" y1="190.000000" x2="324.000000" y2="190.000000"  style="stroke:black; stroke-linecap:round; stroke-width:0.25;"/>
<line x1="324.000000" y1="68.000000" x2="332.000000" y2="68.000000"  style="stroke:black; stroke-linecap:round; stroke-width:0.25;"/>
<line x1="324.000000" y1="178.000000" x2="332.000000" y2="178.000000"  style="stroke:black; stroke-linecap:round; stroke-width:0.25;"/>
<line x1="324.000000" y1="190.000000" x2="324.000000" y2="178.000000"  style="stroke:black; stroke-linecap:round; stroke-width:0.25;"/>
<line x1="324.000000" y1="190.000000" x2="324.000000" y2="190.000000"  style="stroke:black; stroke-linecap:round; stroke-width:0.25;"/>
<line x1="332.000000" y1="68.000000" x2="332.000000" y2="170.000000"  style="stroke:black; stroke-linecap:round; stroke-width:0.25;"/>
<line x1="332.000000" y1="170.000000" x2="332.000000" y2="170.000000"  style="stroke:black; stroke-linecap:round; stroke-width:0.25;"/>
<line x1="332.000000" y1="170.000000" x2="336.000000" y2="170.000000"  style="stroke:black; stroke-linecap:round; stroke-width:0.25;"/>
<line x1="332.000000" y1="178.000000" x2="336.000000" y2="178.000000"  style="stroke:black; stroke-linecap:round; stroke-width:0.25;"/>
<line x1="360.000000" y1="174.000000" x2="364.000000" y2="174.000000"  style="stroke:black; stroke-linecap:round; stroke-width:0.25;"/>
<line x1="364.000000" y1="36.000000" x2="372.000000" y2="36.000000"  style="stroke:black; stroke-linecap:round; stroke-width:0.25;"/>
<line x1="364.000000" y1="162.000000" x2="372.000000" y2="162.000000"  style="stroke:black; stroke-linecap:round; stroke-width:0.25;"/>
<line x1="364.000000" y1="174.000000" x2="364.000000" y2="162.000000"  style="stroke:black; stroke-linecap:round; stroke-width:0.25;"/>
<line x1="364.000000" y1="174.000000" x2="364.000000" y2="174.000000"  style="stroke:black; stroke-linecap:round; stroke-width:0.25;"/>
<line x1="372.000000" y1="36.000000" x2="372.000000" y2="154.000000"  style="stroke:black; stroke-linecap:round; stroke-width:0.25;"/>
<line x1="372.000000" y1="154.000000" x2="372.000000" y2="154.000000"  style="stroke:black; stroke-linecap:round; stroke-width:0.25;"/>
<line x1="372.000000" y1="154.000000" x2="376.000000" y2="154.000000"  style="stroke:black; stroke-linecap:round; stroke-width:0.25;"/>
<line x1="372.000000" y1="162.000000" x2="376.000000" y2="162.000000"  style="stroke:black; stroke-linecap:round; stroke-width:0.25;"/>
<line x1="400.000000" y1="158.000000" x2="404.000000" y2="158.000000"  style="stroke:black; stroke-linecap:round; stroke-width:0.25;"/>
<line x1="404.000000" y1="158.000000" x2="404.000000" y2="158.000000"  style="stroke:black; stroke-linecap:round; stroke-width:0.25;"/>
<line x1="404.000000" y1="158.000000" x2="408.000000" y2="158.000000"  style="stroke:black; stroke-linecap:round; stroke-width:0.25;"/>
<line x1="408.000000" y1="158.000000" x2="412.000000" y2="158.000000"  style="stroke:black; stroke-linecap:round; stroke-width:0.25;"/>
<line x1="412.000000" y1="158.000000" x2="422.000000" y2="158.000000"  style="stroke:black; stroke-linecap:round; stroke-width:0.25;"/>
</svg>
