<?xml version="1.0"?>
<svg xmlns="http://www.w3.org/2000/svg" xmlns:xlink="http://www.w3.org/1999/xlink" viewBox="0 0 337.500000 104.000000" width="168.750000mm" height="52.000000mm" version="1.1">
<rect x="1.000000" y="1.000000" width="336.500000" height="103.000000" rx="0" ry="0" style="stroke:none;fill:#cccccc;"/>
<rect x="0.000000" y="0.000000" width="336.500000" height="103.000000" rx="0" ry="0" style="stroke:none;fill:#ffffff;"/>
<text x="10.000000" y="7.000000" font-family="Arial" font-size="7"></text>
<a xlink:href="lpfc1ca0-0x7f21bc3ff4e0.svg">
<rect x="33.000000" y="41.000000" width="38.700000" height="24.000000" rx="0" ry="0" style="stroke:none;fill:#cccccc;"/>
<rect x="32.000000" y="40.000000" width="38.700000" height="24.000000" rx="0" ry="0" style="stroke:none;fill:#003366;"/>
</a>
<a xlink:href="lpfc1ca0-0x7f21bc3ff4e0.svg">
<text x="51.350000" y="54.000000" font-family="Arial" font-size="7" text-anchor="middle" fill="#FFFFFF">lpfc1ca0</text>
</a>
<circle cx="34.000000" cy="42.000000" r="1"/>
<line x1="29.000000" y1="51.000000" x2="32.000000" y2="52.000000"  transform="rotate(0.000000,32.000000,52.000000)" style="stroke: black; stroke-width:0.25;"/>
<line x1="29.000000" y1="53.000000" x2="32.000000" y2="52.000000"  transform="rotate(0.000000,32.000000,52.000000)" style="stroke: black; stroke-width:0.25;"/>
<a xlink:href="lpfc1ca0-0x7f21bc3ff4e0.svg">
<rect x="103.700000" y="25.000000" width="38.700000" height="24.000000" rx="0" ry="0" style="stroke:none;fill:#cccccc;"/>
<rect x="102.700000" y="24.000000" width="38.700000" height="24.000000" rx="0" ry="0" style="stroke:none;fill:#003366;"/>
</a>
<a xlink:href="lpfc1ca0-0x7f21bc3ff4e0.svg">
<text x="122.050000" y="38.000000" font-family="Arial" font-size="7" text-anchor="middle" fill="#FFFFFF">lpfc1ca0</text>
</a>
<circle cx="104.700000" cy="26.000000" r="1"/>
<line x1="99.700000" y1="35.000000" x2="102.700000" y2="36.000000"  transform="rotate(0.000000,102.700000,36.000000)" style="stroke: black; stroke-width:0.25;"/>
<line x1="99.700000" y1="37.000000" x2="102.700000" y2="36.000000"  transform="rotate(0.000000,102.700000,36.000000)" style="stroke: black; stroke-width:0.25;"/>
<a xlink:href="del3c000-0x7f21bc3dbe20.svg">
<rect x="103.700000" y="57.000000" width="38.700000" height="24.000000" rx="0" ry="0" style="stroke:none;fill:#cccccc;"/>
<rect x="102.700000" y="56.000000" width="38.700000" height="24.000000" rx="0" ry="0" style="stroke:none;fill:#003366;"/>
</a>
<a xlink:href="del3c000-0x7f21bc3dbe20.svg">
<text x="122.050000" y="70.000000" font-family="Arial" font-size="7" text-anchor="middle" fill="#FFFFFF">del3c000</text>
</a>
<circle cx="104.700000" cy="58.000000" r="1"/>
<line x1="99.700000" y1="67.000000" x2="102.700000" y2="68.000000"  transform="rotate(0.000000,102.700000,68.000000)" style="stroke: black; stroke-width:0.25;"/>
<line x1="99.700000" y1="69.000000" x2="102.700000" y2="68.000000"  transform="rotate(0.000000,102.700000,68.000000)" style="stroke: black; stroke-width:0.25;"/>
<a xlink:href="rev846a0-0x7f21bc410110.svg">
<rect x="174.400000" y="41.000000" width="38.700000" height="24.000000" rx="0" ry="0" style="stroke:none;fill:#cccccc;"/>
<rect x="173.400000" y="40.000000" width="38.700000" height="24.000000" rx="0" ry="0" style="stroke:none;fill:#003366;"/>
</a>
<a xlink:href="rev846a0-0x7f21bc410110.svg">
<text x="192.750000" y="54.000000" font-family="Arial" font-size="7" text-anchor="middle" fill="#FFFFFF">rev846a0</text>
</a>
<circle cx="175.400000" cy="42.000000" r="1"/>
<line x1="170.400000" y1="51.000000" x2="173.400000" y2="52.000000"  transform="rotate(0.000000,173.400000,52.000000)" style="stroke: black; stroke-width:0.25;"/>
<line x1="170.400000" y1="53.000000" x2="173.400000" y2="52.000000"  transform="rotate(0.000000,173.400000,52.000000)" style="stroke: black; stroke-width:0.25;"/>
<a xlink:href="gainfed20-0x7f21bc39ada0.svg">
<rect x="221.100000" y="41.000000" width="38.700000" height="24.000000" rx="0" ry="0" style="stroke:none;fill:#cccccc;"/>
<rect x="220.100000" y="40.000000" width="38.700000" height="24.000000" rx="0" ry="0" style="stroke:none;fill:#003366;"/>
</a>
<a xlink:href="gainfed20-0x7f21bc39ada0.svg">
<text x="239.450000" y="54.000000" font-family="Arial" font-size="7" text-anchor="middle" fill="#FFFFFF">gainfed20</text>
</a>
<circle cx="222.100000" cy="42.000000" r="1"/>
<line x1="217.100000" y1="51.000000" x2="220.100000" y2="52.000000"  transform="rotate(0.000000,220.100000,52.000000)" style="stroke: black; stroke-width:0.25;"/>
<line x1="217.100000" y1="53.000000" x2="220.100000" y2="52.000000"  transform="rotate(0.000000,220.100000,52.000000)" style="stroke: black; stroke-width:0.25;"/>
<a xlink:href="hpfd1be0-0x7f21bc3da9a0.svg">
<rect x="267.800000" y="41.000000" width="38.700000" height="24.000000" rx="0" ry="0" style="stroke:none;fill:#cccccc;"/>
<rect x="266.800000" y="40.000000" width="38.700000" height="24.000000" rx="0" ry="0" style="stroke:none;fill:#003366;"/>
</a>
<a xlink:href="hpfd1be0-0x7f21bc3da9a0.svg">
<text x="286.150000" y="54.000000" font-family="Arial" font-size="7" text-anchor="middle" fill="#FFFFFF">hpfd1be0</text>
</a>
<circle cx="268.800000" cy="42.000000" r="1"/>
<line x1="263.800000" y1="51.000000" x2="266.800000" y2="52.000000"  transform="rotate(0.000000,266.800000,52.000000)" style="stroke: black; stroke-width:0.25;"/>
<line x1="263.800000" y1="53.000000" x2="266.800000" y2="52.000000"  transform="rotate(0.000000,266.800000,52.000000)" style="stroke: black; stroke-width:0.25;"/>
<line x1="15.000000" y1="15.000000" x2="15.000000" y2="89.000000"  style="stroke: black; stroke-linecap:round; stroke-width:0.25; stroke-dasharray:3,3;"/>
<line x1="15.000000" y1="89.000000" x2="322.500000" y2="89.000000"  style="stroke: black; stroke-linecap:round; stroke-width:0.25; stroke-dasharray:3,3;"/>
<line x1="322.500000" y1="89.000000" x2="322.500000" y2="15.000000"  style="stroke: black; stroke-linecap:round; stroke-width:0.25; stroke-dasharray:3,3;"/>
<line x1="15.000000" y1="15.000000" x2="20.000000" y2="15.000000"  style="stroke: black; stroke-linecap:round; stroke-width:0.25; stroke-dasharray:3,3;"/>
<line x1="49.025000" y1="15.000000" x2="322.500000" y2="15.000000"  style="stroke: black; stroke-linecap:round; stroke-width:0.25; stroke-dasharray:3,3;"/>
<text x="20.000000" y="17.000000" font-family="Arial" font-size="7">process</text>
<line x1="324.500000" y1="51.000000" x2="327.500000" y2="52.000000"  transform="rotate(0.000000,327.500000,52.000000)" style="stroke: black; stroke-width:0.25;"/>
<line x1="324.500000" y1="53.000000" x2="327.500000" y2="52.000000"  transform="rotate(0.000000,327.500000,52.000000)" style="stroke: black; stroke-width:0.25;"/>
<line x1="10.000000" y1="52.000000" x2="20.000000" y2="52.000000"  style="stroke:black; stroke-linecap:round; stroke-width:0.25;"/>
<line x1="20.000000" y1="52.000000" x2="24.000000" y2="52.000000"  style="stroke:black; stroke-linecap:round; stroke-width:0.25;"/>
<line x1="24.000000" y1="52.000000" x2="28.000000" y2="52.000000"  style="stroke:black; stroke-linecap:round; stroke-width:0.25;"/>
<line x1="28.000000" y1="52.000000" x2="28.000000" y2="52.000000"  style="stroke:black; stroke-linecap:round; stroke-width:0.25;"/>
<line x1="28.000000" y1="52.000000" x2="32.000000" y2="52.000000"  style="stroke:black; stroke-linecap:round; stroke-width:0.25;"/>
<line x1="70.700000" y1="52.000000" x2="74.700000" y2="52.000000"  style="stroke:black; stroke-linecap:round; stroke-width:0.25;"/>
<line x1="74.700000" y1="52.000000" x2="98.700000" y2="36.000000"  style="stroke:black; stroke-linecap:round; stroke-width:0.25;"/>
<line x1="74.700000" y1="52.000000" x2="98.700000" y2="68.000000"  style="stroke:black; stroke-linecap:round; stroke-width:0.25;"/>
<line x1="98.700000" y1="36.000000" x2="102.700000" y2="36.000000"  style="stroke:black; stroke-linecap:round; stroke-width:0.25;"/>
<line x1="98.700000" y1="68.000000" x2="102.700000" y2="68.000000"  style="stroke:black; stroke-linecap:round; stroke-width:0.25;"/>
<line x1="141.400000" y1="36.000000" x2="145.400000" y2="36.000000"  style="stroke:black; stroke-linecap:round; stroke-width:0.25;"/>
<line x1="141.400000" y1="68.000000" x2="145.400000" y2="68.000000"  style="stroke:black; stroke-linecap:round; stroke-width:0.25;"/>
<line x1="145.400000" y1="36.000000" x2="169.400000" y2="52.000000"  style="stroke:black; stroke-linecap:round; stroke-width:0.25;"/>
<line x1="145.400000" y1="68.000000" x2="169.400000" y2="52.000000"  style="stroke:black; stroke-linecap:round; stroke-width:0.25;"/>
<line x1="169.400000" y1="52.000000" x2="173.400000" y2="52.000000"  style="stroke:black; stroke-linecap:round; stroke-width:0.25;"/>
<line x1="212.100000" y1="52.000000" x2="216.100000" y2="52.000000"  style="stroke:black; stroke-linecap:round; stroke-width:0.25;"/>
<line x1="216.100000" y1="52.000000" x2="216.100000" y2="52.000000"  style="stroke:black; stroke-linecap:round; stroke-width:0.25;"/>
<line x1="216.100000" y1="52.000000" x2="220.100000" y2="52.000000"  style="stroke:black; stroke-linecap:round; stroke-width:0.25;"/>
<line x1="258.800000" y1="52.000000" x2="262.800000" y2="52.000000"  style="stroke:black; stroke-linecap:round; stroke-width:0.25;"/>
<line x1="262.800000" y1="52.000000" x2="262.800000" y2="52.000000"  style="stroke:black; stroke-linecap:round; stroke-width:0.25;"/>
<line x1="262.800000" y1="52.000000" x2="266.800000" y2="52.000000"  style="stroke:black; stroke-linecap:round; stroke-width:0.25;"/>
<line x1="305.500000" y1="52.000000" x2="309.500000" y2="52.000000"  style="stroke:black; stroke-linecap:round; stroke-width:0.25;"/>
<line x1="309.500000" y1="52.000000" x2="309.500000" y2="52.000000"  style="stroke:black; stroke-linecap:round; stroke-width:0.25;"/>
<line x1="309.500000" y1="52.000000" x2="313.500000" y2="52.000000"  style="stroke:black; stroke-linecap:round; stroke-width:0.25;"/>
<line x1="313.500000" y1="52.000000" x2="317.500000" y2="52.000000"  style="stroke:black; stroke-linecap:round; stroke-width:0.25;"/>
<line x1="317.500000" y1="52.000000" x2="327.500000" y2="52.000000"  style="stroke:black; stroke-linecap:round; stroke-width:0.25;"/>
</svg>
