<?xml version="1.0"?>
<svg xmlns="http://www.w3.org/2000/svg" xmlns:xlink="http://www.w3.org/1999/xlink" viewBox="0 0 990.200000 296.000000" width="495.100000mm" height="148.000000mm" version="1.1">
<a xlink:href="process.svg">
<rect x="1.000000" y="1.000000" width="989.200000" height="295.000000" rx="0" ry="0" style="stroke:none;fill:#cccccc;"/>
<rect x="0.000000" y="0.000000" width="989.200000" height="295.000000" rx="0" ry="0" style="stroke:none;fill:#ffffff;"/>
</a>
<text x="10.000000" y="7.000000" font-family="Arial" font-size="7"></text>
<a xlink:href="lbcf-0x7f21bc399870.svg">
<rect x="107.000000" y="25.000000" width="180.600000" height="24.000000" rx="0" ry="0" style="stroke:none;fill:#cccccc;"/>
<rect x="106.000000" y="24.000000" width="180.600000" height="24.000000" rx="0" ry="0" style="stroke:none;fill:#003366;"/>
</a>
<a xlink:href="lbcf-0x7f21bc399870.svg">
<text x="196.300000" y="38.000000" font-family="Arial" font-size="7" text-anchor="middle" fill="#FFFFFF">lbcf(((1116,(...99999999998f)(0.324687f)</text>
</a>
<circle cx="108.000000" cy="26.000000" r="1"/>
<line x1="103.000000" y1="35.000000" x2="106.000000" y2="36.000000"  transform="rotate(0.000000,106.000000,36.000000)" style="stroke: black; stroke-width:0.25;"/>
<line x1="103.000000" y1="37.000000" x2="106.000000" y2="36.000000"  transform="rotate(0.000000,106.000000,36.000000)" style="stroke: black; stroke-width:0.25;"/>
<a xlink:href="lbcf-0x7f21bc38fed0.svg">
<rect x="107.000000" y="57.000000" width="180.600000" height="24.000000" rx="0" ry="0" style="stroke:none;fill:#cccccc;"/>
<rect x="106.000000" y="56.000000" width="180.600000" height="24.000000" rx="0" ry="0" style="stroke:none;fill:#003366;"/>
</a>
<a xlink:href="lbcf-0x7f21bc38fed0.svg">
<text x="196.300000" y="70.000000" font-family="Arial" font-size="7" text-anchor="middle" fill="#FFFFFF">lbcf(((1188,(...99999999998f)(0.324687f)</text>
</a>
<circle cx="108.000000" cy="58.000000" r="1"/>
<line x1="103.000000" y1="67.000000" x2="106.000000" y2="68.000000"  transform="rotate(0.000000,106.000000,68.000000)" style="stroke: black; stroke-width:0.25;"/>
<line x1="103.000000" y1="69.000000" x2="106.000000" y2="68.000000"  transform="rotate(0.000000,106.000000,68.000000)" style="stroke: black; stroke-width:0.25;"/>
<a xlink:href="lbcf-0x7f21bc386520.svg">
<rect x="107.000000" y="89.000000" width="180.600000" height="24.000000" rx="0" ry="0" style="stroke:none;fill:#cccccc;"/>
<rect x="106.000000" y="88.000000" width="180.600000" height="24.000000" rx="0" ry="0" style="stroke:none;fill:#003366;"/>
</a>
<a xlink:href="lbcf-0x7f21bc386520.svg">
<text x="196.300000" y="102.000000" font-family="Arial" font-size="7" text-anchor="middle" fill="#FFFFFF">lbcf(((1277,(...99999999998f)(0.324687f)</text>
</a>
<circle cx="108.000000" cy="90.000000" r="1"/>
<line x1="103.000000" y1="99.000000" x2="106.000000" y2="100.000000"  transform="rotate(0.000000,106.000000,100.000000)" style="stroke: black; stroke-width:0.25;"/>
<line x1="103.000000" y1="101.000000" x2="106.000000" y2="100.000000"  transform="rotate(0.000000,106.000000,100.000000)" style="stroke: black; stroke-width:0.25;"/>
<a xlink:href="lbcf-0x7f21bc37cb70.svg">
<rect x="107.000000" y="121.000000" width="180.600000" height="24.000000" rx="0" ry="0" style="stroke:none;fill:#cccccc;"/>
<rect x="106.000000" y="120.000000" width="180.600000" height="24.000000" rx="0" ry="0" style="stroke:none;fill:#003366;"/>
</a>
<a xlink:href="lbcf-0x7f21bc37cb70.svg">
<text x="196.300000" y="134.000000" font-family="Arial" font-size="7" text-anchor="middle" fill="#FFFFFF">lbcf(((1356,(...99999999998f)(0.324687f)</text>
</a>
<circle cx="108.000000" cy="122.000000" r="1"/>
<line x1="103.000000" y1="131.000000" x2="106.000000" y2="132.000000"  transform="rotate(0.000000,106.000000,132.000000)" style="stroke: black; stroke-width:0.25;"/>
<line x1="103.000000" y1="133.000000" x2="106.000000" y2="132.000000"  transform="rotate(0.000000,106.000000,132.000000)" style="stroke: black; stroke-width:0.25;"/>
<a xlink:href="lbcf-0x7f21bc3731c0.svg">
<rect x="107.000000" y="153.000000" width="180.600000" height="24.000000" rx="0" ry="0" style="stroke:none;fill:#cccccc;"/>
<rect x="106.000000" y="152.000000" width="180.600000" height="24.000000" rx="0" ry="0" style="stroke:none;fill:#003366;"/>
</a>
<a xlink:href="lbcf-0x7f21bc3731c0.svg">
<text x="196.300000" y="166.000000" font-family="Arial" font-size="7" text-anchor="middle" fill="#FFFFFF">lbcf(((1422,(...99999999998f)(0.324687f)</text>
</a>
<circle cx="108.000000" cy="154.000000" r="1"/>
<line x1="103.000000" y1="163.000000" x2="106.000000" y2="164.000000"  transform="rotate(0.000000,106.000000,164.000000)" style="stroke: black; stroke-width:0.25;"/>
<line x1="103.000000" y1="165.000000" x2="106.000000" y2="164.000000"  transform="rotate(0.000000,106.000000,164.000000)" style="stroke: black; stroke-width:0.25;"/>
<a xlink:href="lbcf-0x7f21bc3697d0.svg">
<rect x="107.000000" y="185.000000" width="180.600000" height="24.000000" rx="0" ry="0" style="stroke:none;fill:#cccccc;"/>
<rect x="106.000000" y="184.000000" width="180.600000" height="24.000000" rx="0" ry="0" style="stroke:none;fill:#003366;"/>
</a>
<a xlink:href="lbcf-0x7f21bc3697d0.svg">
<text x="196.300000" y="198.000000" font-family="Arial" font-size="7" text-anchor="middle" fill="#FFFFFF">lbcf(((1491,(...99999999998f)(0.324687f)</text>
</a>
<circle cx="108.000000" cy="186.000000" r="1"/>
<line x1="103.000000" y1="195.000000" x2="106.000000" y2="196.000000"  transform="rotate(0.000000,106.000000,196.000000)" style="stroke: black; stroke-width:0.25;"/>
<line x1="103.000000" y1="197.000000" x2="106.000000" y2="196.000000"  transform="rotate(0.000000,106.000000,196.000000)" style="stroke: black; stroke-width:0.25;"/>
<a xlink:href="lbcf-0x7f21bc35fde0.svg">
<rect x="107.000000" y="217.000000" width="180.600000" height="24.000000" rx="0" ry="0" style="stroke:none;fill:#cccccc;"/>
<rect x="106.000000" y="216.000000" width="180.600000" height="24.000000" rx="0" ry="0" style="stroke:none;fill:#003366;"/>
</a>
<a xlink:href="lbcf-0x7f21bc35fde0.svg">
<text x="196.300000" y="230.000000" font-family="Arial" font-size="7" text-anchor="middle" fill="#FFFFFF">lbcf(((1557,(...99999999998f)(0.324687f)</text>
</a>
<circle cx="108.000000" cy="218.000000" r="1"/>
<line x1="103.000000" y1="227.000000" x2="106.000000" y2="228.000000"  transform="rotate(0.000000,106.000000,228.000000)" style="stroke: black; stroke-width:0.25;"/>
<line x1="103.000000" y1="229.000000" x2="106.000000" y2="228.000000"  transform="rotate(0.000000,106.000000,228.000000)" style="stroke: black; stroke-width:0.25;"/>
<a xlink:href="lbcf-0x7f21bc356540.svg">
<rect x="107.000000" y="249.000000" width="180.600000" height="24.000000" rx="0" ry="0" style="stroke:none;fill:#cccccc;"/>
<rect x="106.000000" y="248.000000" width="180.600000" height="24.000000" rx="0" ry="0" style="stroke:none;fill:#003366;"/>
</a>
<a xlink:href="lbcf-0x7f21bc356540.svg">
<text x="196.300000" y="262.000000" font-family="Arial" font-size="7" text-anchor="middle" fill="#FFFFFF">lbcf(((1617,(...99999999998f)(0.324687f)</text>
</a>
<circle cx="108.000000" cy="250.000000" r="1"/>
<line x1="103.000000" y1="259.000000" x2="106.000000" y2="260.000000"  transform="rotate(0.000000,106.000000,260.000000)" style="stroke: black; stroke-width:0.25;"/>
<line x1="103.000000" y1="261.000000" x2="106.000000" y2="260.000000"  transform="rotate(0.000000,106.000000,260.000000)" style="stroke: black; stroke-width:0.25;"/>
<a xlink:href="allpass-0x7f21bc404f20.svg">
<rect x="367.600000" y="137.000000" width="141.900000" height="24.000000" rx="0" ry="0" style="stroke:none;fill:#cccccc;"/>
<rect x="366.600000" y="136.000000" width="141.900000" height="24.000000" rx="0" ry="0" style="stroke:none;fill:#003366;"/>
</a>
<a xlink:href="allpass-0x7f21bc404f20.svg">
<text x="437.550000" y="150.000000" font-family="Arial" font-size="7" text-anchor="middle" fill="#FFFFFF">allpass_comb(....532281f : +)(-1)</text>
</a>
<circle cx="368.600000" cy="138.000000" r="1"/>
<line x1="363.600000" y1="147.000000" x2="366.600000" y2="148.000000"  transform="rotate(0.000000,366.600000,148.000000)" style="stroke: black; stroke-width:0.25;"/>
<line x1="363.600000" y1="149.000000" x2="366.600000" y2="148.000000"  transform="rotate(0.000000,366.600000,148.000000)" style="stroke: black; stroke-width:0.25;"/>
<a xlink:href="allpass-0x7f21bc4088a0.svg">
<rect x="517.500000" y="137.000000" width="141.900000" height="24.000000" rx="0" ry="0" style="stroke:none;fill:#cccccc;"/>
<rect x="516.500000" y="136.000000" width="141.900000" height="24.000000" rx="0" ry="0" style="stroke:none;fill:#003366;"/>
</a>
<a xlink:href="allpass-0x7f21bc4088a0.svg">
<text x="587.450000" y="150.000000" font-family="Arial" font-size="7" text-anchor="middle" fill="#FFFFFF">allpass_comb(....532281f : +)(-1)</text>
</a>
<circle cx="518.500000" cy="138.000000" r="1"/>
<line x1="513.500000" y1="147.000000" x2="516.500000" y2="148.000000"  transform="rotate(0.000000,516.500000,148.000000)" style="stroke: black; stroke-width:0.25;"/>
<line x1="513.500000" y1="149.000000" x2="516.500000" y2="148.000000"  transform="rotate(0.000000,516.500000,148.000000)" style="stroke: black; stroke-width:0.25;"/>
<a xlink:href="allpass-0x7f21bc40c240.svg">
<rect x="667.400000" y="137.000000" width="141.900000" height="24.000000" rx="0" ry="0" style="stroke:none;fill:#cccccc;"/>
<rect x="666.400000" y="136.000000" width="141.900000" height="24.000000" rx="0" ry="0" style="stroke:none;fill:#003366;"/>
</a>
<a xlink:href="allpass-0x7f21bc40c240.svg">
<text x="737.350000" y="150.000000" font-family="Arial" font-size="7" text-anchor="middle" fill="#FFFFFF">allpass_comb(....532281f : +)(-1)</text>
</a>
<circle cx="668.400000" cy="138.000000" r="1"/>
<line x1="663.400000" y1="147.000000" x2="666.400000" y2="148.000000"  transform="rotate(0.000000,666.400000,148.000000)" style="stroke: black; stroke-width:0.25;"/>
<line x1="663.400000" y1="149.000000" x2="666.400000" y2="148.000000"  transform="rotate(0.000000,666.400000,148.000000)" style="stroke: black; stroke-width:0.25;"/>
<a xlink:href="allpass-0x7f21bc40fb80.svg">
<rect x="817.300000" y="137.000000" width="141.900000" height="24.000000" rx="0" ry="0" style="stroke:none;fill:#cccccc;"/>
<rect x="816.300000" y="136.000000" width="141.900000" height="24.000000" rx="0" ry="0" style="stroke:none;fill:#003366;"/>
</a>
<a xlink:href="allpass-0x7f21bc40fb80.svg">
<text x="887.250000" y="150.000000" font-family="Arial" font-size="7" text-anchor="middle" fill="#FFFFFF">allpass_comb(....532281f : +)(-1)</text>
</a>
<circle cx="818.300000" cy="138.000000" r="1"/>
<line x1="813.300000" y1="147.000000" x2="816.300000" y2="148.000000"  transform="rotate(0.000000,816.300000,148.000000)" style="stroke: black; stroke-width:0.25;"/>
<line x1="813.300000" y1="149.000000" x2="816.300000" y2="148.000000"  transform="rotate(0.000000,816.300000,148.000000)" style="stroke: black; stroke-width:0.25;"/>
<line x1="15.000000" y1="15.000000" x2="15.000000" y2="281.000000"  style="stroke: black; stroke-linecap:round; stroke-width:0.25; stroke-dasharray:3,3;"/>
<line x1="15.000000" y1="281.000000" x2="975.200000" y2="281.000000"  style="stroke: black; stroke-linecap:round; stroke-width:0.25; stroke-dasharray:3,3;"/>
<line x1="975.200000" y1="281.000000" x2="975.200000" y2="15.000000"  style="stroke: black; stroke-linecap:round; stroke-width:0.25; stroke-dasharray:3,3;"/>
<line x1="15.000000" y1="15.000000" x2="20.000000" y2="15.000000"  style="stroke: black; stroke-linecap:round; stroke-width:0.25; stroke-dasharray:3,3;"/>
<line x1="52.250000" y1="15.000000" x2="975.200000" y2="15.000000"  style="stroke: black; stroke-linecap:round; stroke-width:0.25; stroke-dasharray:3,3;"/>
<text x="20.000000" y="17.000000" font-family="Arial" font-size="7">rev846a0</text>
<line x1="977.200000" y1="147.000000" x2="980.200000" y2="148.000000"  transform="rotate(0.000000,980.200000,148.000000)" style="stroke: black; stroke-width:0.25;"/>
<line x1="977.200000" y1="149.000000" x2="980.200000" y2="148.000000"  transform="rotate(0.000000,980.200000,148.000000)" style="stroke: black; stroke-width:0.25;"/>
<line x1="10.000000" y1="148.000000" x2="20.000000" y2="148.000000"  style="stroke:black; stroke-linecap:round; stroke-width:0.25;"/>
<line x1="20.000000" y1="148.000000" x2="24.000000" y2="148.000000"  style="stroke:black; stroke-linecap:round; stroke-width:0.25;"/>
<line x1="24.000000" y1="148.000000" x2="28.000000" y2="148.000000"  style="stroke:black; stroke-linecap:round; stroke-width:0.25;"/>
<line x1="28.000000" y1="148.000000" x2="28.000000" y2="148.000000"  style="stroke:black; stroke-linecap:round; stroke-width:0.25;"/>
<line x1="28.000000" y1="148.000000" x2="32.000000" y2="148.000000"  style="stroke:black; stroke-linecap:round; stroke-width:0.25;"/>
<line x1="32.000000" y1="148.000000" x2="36.000000" y2="148.000000"  style="stroke:black; stroke-linecap:round; stroke-width:0.25;"/>
<line x1="36.000000" y1="148.000000" x2="102.000000" y2="36.000000"  style="stroke:black; stroke-linecap:round; stroke-width:0.25;"/>
<line x1="36.000000" y1="148.000000" x2="102.000000" y2="68.000000"  style="stroke:black; stroke-linecap:round; stroke-width:0.25;"/>
<line x1="36.000000" y1="148.000000" x2="102.000000" y2="100.000000"  style="stroke:black; stroke-linecap:round; stroke-width:0.25;"/>
<line x1="36.000000" y1="148.000000" x2="102.000000" y2="132.000000"  style="stroke:black; stroke-linecap:round; stroke-width:0.25;"/>
<line x1="36.000000" y1="148.000000" x2="102.000000" y2="164.000000"  style="stroke:black; stroke-linecap:round; stroke-width:0.25;"/>
<line x1="36.000000" y1="148.000000" x2="102.000000" y2="196.000000"  style="stroke:black; stroke-linecap:round; stroke-width:0.25;"/>
<line x1="36.000000" y1="148.000000" x2="102.000000" y2="228.000000"  style="stroke:black; stroke-linecap:round; stroke-width:0.25;"/>
<line x1="36.000000" y1="148.000000" x2="102.000000" y2="260.000000"  style="stroke:black; stroke-linecap:round; stroke-width:0.25;"/>
<line x1="102.000000" y1="36.000000" x2="106.000000" y2="36.000000"  style="stroke:black; stroke-linecap:round; stroke-width:0.25;"/>
<line x1="102.000000" y1="68.000000" x2="106.000000" y2="68.000000"  style="stroke:black; stroke-linecap:round; stroke-width:0.25;"/>
<line x1="102.000000" y1="100.000000" x2="106.000000" y2="100.000000"  style="stroke:black; stroke-linecap:round; stroke-width:0.25;"/>
<line x1="102.000000" y1="132.000000" x2="106.000000" y2="132.000000"  style="stroke:black; stroke-linecap:round; stroke-width:0.25;"/>
<line x1="102.000000" y1="164.000000" x2="106.000000" y2="164.000000"  style="stroke:black; stroke-linecap:round; stroke-width:0.25;"/>
<line x1="102.000000" y1="196.000000" x2="106.000000" y2="196.000000"  style="stroke:black; stroke-linecap:round; stroke-width:0.25;"/>
<line x1="102.000000" y1="228.000000" x2="106.000000" y2="228.000000"  style="stroke:black; stroke-linecap:round; stroke-width:0.25;"/>
<line x1="102.000000" y1="260.000000" x2="106.000000" y2="260.000000"  style="stroke:black; stroke-linecap:round; stroke-width:0.25;"/>
<line x1="286.600000" y1="36.000000" x2="290.600000" y2="36.000000"  style="stroke:black; stroke-linecap:round; stroke-width:0.25;"/>
<line x1="286.600000" y1="68.000000" x2="290.600000" y2="68.000000"  style="stroke:black; stroke-linecap:round; stroke-width:0.25;"/>
<line x1="286.600000" y1="100.000000" x2="290.600000" y2="100.000000"  style="stroke:black; stroke-linecap:round; stroke-width:0.25;"/>
<line x1="286.600000" y1="132.000000" x2="290.600000" y2="132.000000"  style="stroke:black; stroke-linecap:round; stroke-width:0.25;"/>
<line x1="286.600000" y1="164.000000" x2="290.600000" y2="164.000000"  style="stroke:black; stroke-linecap:round; stroke-width:0.25;"/>
<line x1="286.600000" y1="196.000000" x2="290.600000" y2="196.000000"  style="stroke:black; stroke-linecap:round; stroke-width:0.25;"/>
<line x1="286.600000" y1="228.000000" x2="290.600000" y2="228.000000"  style="stroke:black; stroke-linecap:round; stroke-width:0.25;"/>
<line x1="286.600000" y1="260.000000" x2="290.600000" y2="260.000000"  style="stroke:black; stroke-linecap:round; stroke-width:0.25;"/>
<line x1="290.600000" y1="36.000000" x2="362.600000" y2="148.000000"  style="stroke:black; stroke-linecap:round; stroke-width:0.25;"/>
<line x1="290.600000" y1="68.000000" x2="362.600000" y2="148.000000"  style="stroke:black; stroke-linecap:round; stroke-width:0.25;"/>
<line x1="290.600000" y1="100.000000" x2="362.600000" y2="148.000000"  style="stroke:black; stroke-linecap:round; stroke-width:0.25;"/>
<line x1="290.600000" y1="132.000000" x2="362.600000" y2="148.000000"  style="stroke:black; stroke-linecap:round; stroke-width:0.25;"/>
<line x1="290.600000" y1="164.000000" x2="362.600000" y2="148.000000"  style="stroke:black; stroke-linecap:round; stroke-width:0.25;"/>
<line x1="290.600000" y1="196.000000" x2="362.600000" y2="148.000000"  style="stroke:black; stroke-linecap:round; stroke-width:0.25;"/>
<line x1="290.600000" y1="228.000000" x2="362.600000" y2="148.000000"  style="stroke:black; stroke-linecap:round; stroke-width:0.25;"/>
<line x1="290.600000" y1="260.000000" x2="362.600000" y2="148.000000"  style="stroke:black; stroke-linecap:round; stroke-width:0.25;"/>
<line x1="362.600000" y1="148.000000" x2="366.600000" y2="148.000000"  style="stroke:black; stroke-linecap:round; stroke-width:0.25;"/>
<line x1="508.500000" y1="148.000000" x2="512.500000" y2="148.000000"  style="stroke:black; stroke-linecap:round; stroke-width:0.25;"/>
<line x1="512.500000" y1="148.000000" x2="512.500000" y2="148.000000"  style="stroke:black; stroke-linecap:round; stroke-width:0.25;"/>
<line x1="512.500000" y1="148.000000" x2="516.500000" y2="148.000000"  style="stroke:black; stroke-linecap:round; stroke-width:0.25;"/>
<line x1="658.400000" y1="148.000000" x2="662.400000" y2="148.000000"  style="stroke:black; stroke-linecap:round; stroke-width:0.25;"/>
<line x1="662.400000" y1="148.000000" x2="662.400000" y2="148.000000"  style="stroke:black; stroke-linecap:round; stroke-width:0.25;"/>
<line x1="662.400000" y1="148.000000" x2="666.400000" y2="148.000000"  style="stroke:black; stroke-linecap:round; stroke-width:0.25;"/>
<line x1="808.300000" y1="148.000000" x2="812.300000" y2="148.000000"  style="stroke:black; stroke-linecap:round; stroke-width:0.25;"/>
<line x1="812.300000" y1="148.000000" x2="812.300000" y2="148.000000"  style="stroke:black; stroke-linecap:round; stroke-width:0.25;"/>
<line x1="812.300000" y1="148.000000" x2="816.300000" y2="148.000000"  style="stroke:black; stroke-linecap:round; stroke-width:0.25;"/>
<line x1="958.200000" y1="148.000000" x2="962.200000" y2="148.000000"  style="stroke:black; stroke-linecap:round; stroke-width:0.25;"/>
<line x1="962.200000" y1="148.000000" x2="962.200000" y2="148.000000"  style="stroke:black; stroke-linecap:round; stroke-width:0.25;"/>
<line x1="962.200000" y1="148.000000" x2="966.200000" y2="148.000000"  style="stroke:black; stroke-linecap:round; stroke-width:0.25;"/>
<line x1="966.200000" y1="148.000000" x2="970.200000" y2="148.000000"  style="stroke:black; stroke-linecap:round; stroke-width:0.25;"/>
<line x1="970.200000" y1="148.000000" x2="980.200000" y2="148.000000"  style="stroke:black; stroke-linecap:round; stroke-width:0.25;"/>
</svg>
